<svg viewBox="0 0 386 72" version="1.1" xmlns="http://www.w3.org/2000/svg" xmlns:xlink="http://www.w3.org/1999/xlink">
<title>logo</title>
<desc>Created using Figma</desc>
<g id="Canvas" transform="translate(27628 -1004)">
<g id="logo">
<g id="a1 1">
<use xlink:href="#path0_fill" transform="translate(-27553.5 1023.75)" fill="#FFFFFF"/>
</g>
<g id="r 1">
<use xlink:href="#path1_fill" transform="translate(-27511.8 1024.39)" fill="#FFFFFF"/>
</g>
<g id="a2 1">
<use xlink:href="#path2_fill" transform="translate(-27487.6 1023.75)" fill="#FFFFFF"/>
</g>
<g id="b 1">
<use xlink:href="#path3_fill" transform="translate(-27446.3 1011.96)" fill="#FFFFFF"/>
</g>
<g id="o 1">
<use xlink:href="#path4_fill" transform="translate(-27407.7 1009.73)" fill="#FFFFFF"/>
</g>
<g id="l 1">
<use xlink:href="#path5_fill" transform="translate(-27367 1011.96)" fill="#FFFFFF"/>
</g>
<g id="i 1">
<use xlink:href="#path6_fill" transform="translate(-27349.5 1009.42)" fill="#FFFFFF"/>
</g>
<g id="c 1">
<use xlink:href="#path7_fill" transform="translate(-27332 1023.75)" fill="#FFFFFF"/>
</g>
<g id="a3 1">
<use xlink:href="#path8_fill" transform="translate(-27300.2 1023.75)" fill="#FFFFFF"/>
</g>
<g id="Vector">
<use xlink:href="#path9_fill" transform="translate(-27628 1004)" fill="#FFFFFF"/>
</g>
<g id="bullet 1">
<use xlink:href="#path10_fill" transform="translate(-27258.8 1031.72)" fill="#FFFFFF"/>
</g>
<g id="p 1">
<use xlink:href="#path11_fill" transform="translate(-27591.1 1024.07)" fill="#FFFFFF"/>
</g>
</g>
</g>
<defs>
<path id="path0_fill" d="M 24.5084 23.8938L 24.5084 9.23894C 22.5986 8.28319 20.0523 7.64602 17.506 7.64602C 12.095 7.64602 9.23042 10.8319 9.23042 16.5664C 9.23042 22.3009 12.095 25.4867 17.506 25.4867C 20.0523 25.1681 22.5986 24.531 24.5084 23.8938ZM 33.1022 0.955752L 33.1022 31.8584L 24.1901 31.8584L 24.1901 28.6726C 21.962 31.2212 18.4608 32.4956 14.3231 32.4956C 5.41093 32.4956 -1.21418e-06 25.8053 -1.21418e-06 16.2478C -1.21418e-06 6.69027 5.72922 -6.07651e-07 14.3231 -6.07651e-07C 18.7791 -6.07651e-07 21.962 1.59292 24.1901 3.82301L 24.1901 0.637168L 33.1022 0.955752Z"/>
<path id="path1_fill" d="M 20.6889 7.9646C 15.5962 7.9646 11.7767 8.92035 8.91213 10.8319L 8.91213 31.2212L 0 31.2212L 0 0.318584L 8.91213 0.318584L 8.91213 6.37168C 11.1402 2.54867 15.2779 3.03825e-07 20.6889 3.03825e-07L 20.6889 7.9646Z"/>
<path id="path2_fill" d="M 24.5084 23.8938L 24.5084 9.23894C 22.5986 8.28319 20.0523 7.64602 17.506 7.64602C 12.095 7.64602 9.23042 10.8319 9.23042 16.5664C 9.23042 22.3009 12.095 25.4867 17.506 25.4867C 20.0523 25.1681 22.5986 24.531 24.5084 23.8938ZM 33.1022 0.955752L 33.1022 31.8584L 24.1901 31.8584L 24.1901 28.6726C 21.962 31.2212 18.4608 32.4956 14.3231 32.4956C 5.41093 32.4956 -4.85673e-06 25.8053 -4.85673e-06 16.2478C -4.85673e-06 6.69027 5.72922 -6.07651e-07 14.3231 -6.07651e-07C 18.7791 -6.07651e-07 21.962 1.59292 24.1901 3.82301L 24.1901 0.637168L 33.1022 0.955752Z"/>
<path id="path3_fill" d="M 24.5084 28.0354C 24.5084 21.9823 21.6437 19.115 16.2328 19.115C 13.6865 19.115 11.1402 19.7522 9.23042 20.708L 9.23042 35.3628C 11.1402 36.3186 13.6865 36.9558 16.2328 36.9558C 21.6437 36.9558 24.5084 34.0885 24.5084 28.0354ZM 33.1022 28.0354C 33.1022 37.5929 27.373 44.2832 18.7791 44.2832C 14.3231 44.2832 11.1402 42.6903 8.91214 40.4602L 8.91214 43.646L -4.85673e-06 43.646L -4.85673e-06 0L 8.91214 0L 8.91214 15.9292C 11.1402 13.3805 14.6414 12.1062 18.7791 12.1062C 27.6913 12.1062 33.1022 18.4779 33.1022 28.0354Z"/>
<path id="path4_fill" d="M 15.2779 -1.51913e-07L 25.7815 -1.51913e-07L 20.0523 10.8319L 12.4133 10.8319L 15.2779 -1.51913e-07ZM 25.1449 30.2655C 25.1449 23.8938 22.2803 21.0265 16.8694 21.0265C 11.4585 21.0265 8.59384 24.2124 8.59384 30.2655C 8.59384 36.3186 11.4585 39.5044 16.8694 39.5044C 22.2803 39.5044 25.1449 36.6372 25.1449 30.2655ZM -9.71345e-06 30.2655C -9.71345e-06 20.0708 6.68409 14.0177 17.1877 14.0177C 28.0095 14.0177 34.3754 20.0708 34.3754 30.2655C 34.3754 40.4602 27.6913 46.5133 17.1877 46.5133C 6.04751 46.5133 -9.71345e-06 40.4602 -9.71345e-06 30.2655Z"/>
<path id="path5_fill" d="M 8.91214 0L 0 0L 0 43.646L 8.91214 43.646L 8.91214 0Z"/>
<path id="path6_fill" d="M 0.954881 15.292L 9.867 15.292L 9.867 46.1947L 0.954881 46.1947L 0.954881 15.292ZM 0 5.41593C 0 2.23009 2.22802 1.51913e-07 5.41093 1.51913e-07C 8.91212 1.51913e-07 10.8219 2.23009 10.8219 5.41593C 10.8219 8.60177 8.59383 10.8319 5.41093 10.8319C 1.90973 10.8319 0 8.92035 0 5.41593Z"/>
<path id="path7_fill" d="M 0 16.2478C 0 6.0531 6.36582 -6.07651e-07 16.8694 -6.07651e-07C 20.6889 -6.07651e-07 23.5535 0.637169 26.0998 1.91151L 26.0998 8.92035C 23.5535 7.64602 20.3706 7.00885 16.8694 7.00885C 11.4585 7.00885 8.59383 10.1947 8.59383 16.2478C 8.59383 22.3009 11.4585 25.4867 16.8694 25.4867C 20.3706 25.4867 23.8718 24.8496 26.0998 23.5752L 26.0998 30.5841C 23.5535 32.177 20.3706 32.4956 16.2328 32.4956C 6.04751 32.4956 0 26.4425 0 16.2478Z"/>
<path id="path8_fill" d="M 24.5083 23.8938L 24.5083 9.23894C 22.5986 8.28319 20.0523 7.64602 17.506 7.64602C 12.095 7.64602 9.23043 10.8319 9.23043 16.5664C 9.23043 22.3009 12.095 25.4867 17.506 25.4867C 20.0523 25.1681 22.5986 24.531 24.5083 23.8938ZM 33.1022 0.955752L 33.1022 31.8584L 24.1901 31.8584L 24.1901 28.6726C 21.962 31.2212 18.4608 32.4956 14.3231 32.4956C 5.41094 32.4956 -4.52318e-14 25.8053 -4.52318e-14 16.2478C -4.52318e-14 6.69027 5.72923 -6.07651e-07 14.3231 -6.07651e-07C 18.7791 -6.07651e-07 21.962 1.59292 24.1901 3.82301L 24.1901 0.637168L 33.1022 0.955752Z"/>
<path id="path9_fill" d="M 26.0998 0C 8.27555 3.18584 0 14.6549 0 36C 0 57.6637 8.27555 69.1327 26.0998 72C 26.0998 48.3064 26.0998 23.7361 26.0998 0Z"/>
<path id="path10_fill" d="M 0 8.28319C 0 3.50443 3.50119 -6.07651e-07 8.27554 -6.07651e-07C 13.0499 -6.07651e-07 16.5511 3.50443 16.5511 8.28319C 16.5511 13.0619 13.0499 16.5664 8.27554 16.5664C 3.1829 16.5664 0 13.3805 0 8.28319Z"/>
<path id="path11_fill" d="M 23.8718 15.9292C 23.8718 9.87611 21.0072 7.00885 15.5962 7.00885C 13.0499 7.00885 10.5036 7.64602 8.59384 8.60177L 8.59384 23.5752C 10.5036 24.531 13.0499 25.1681 15.5962 25.1681C 21.3255 24.8496 23.8718 21.9823 23.8718 15.9292ZM 33.1022 15.9292C 33.1022 25.4867 27.373 32.177 18.7791 32.177C 14.3231 32.177 11.1402 30.5841 8.91213 28.354L 8.91213 44.2832L 1.21418e-06 44.2832L 1.21418e-06 0.637168L 8.91213 0.637168L 8.91213 3.82301C 11.1402 1.27434 14.6414 6.07651e-07 18.7791 6.07651e-07C 27.6913 6.07651e-07 33.1022 6.37168 33.1022 15.9292Z"/>
</defs>
</svg>
